<?xml version="1.0" encoding="UTF-8"?>
<svg width="80px" height="103px" viewBox="0 0 80 103" version="1.1" xmlns="http://www.w3.org/2000/svg" xmlns:xlink="http://www.w3.org/1999/xlink">
    <!-- Generator: Sketch 48.2 (47327) - http://www.bohemiancoding.com/sketch -->
    <title>Page 1</title>
    <desc>Created with Sketch.</desc>
    <defs>
        <polygon id="path-1" points="0.000163265306 0.000163265306 80 0.000163265306 80 102.857143 0.000163265306 102.857143"></polygon>
    </defs>
    <g id="Staff-loan-form-submitted" stroke="none" stroke-width="1" fill="none" fill-rule="evenodd" transform="translate(-660.000000, -201.000000)">
        <g id="done" transform="translate(486.000000, 201.000000)">
            <g id="Page-1" transform="translate(174.000000, 0.000000)">
                <mask id="mask-2" fill="white">
                    <use xlink:href="#path-1"></use>
                </mask>
                <g id="Clip-2"></g>
                <path d="M52.1046531,88.8393469 L66.7985306,74.1454694 C68.0736327,72.8703673 68.0736327,70.8034286 66.7985306,69.5283265 C65.5234286,68.2532245 63.4564898,68.2532245 62.1813878,69.5283265 L49.8173061,81.9348571 L43.9413878,76.0589388 C42.6662857,74.7838367 40.5993469,74.7838367 39.3242449,76.0589388 C38.0491429,77.3340408 38.0491429,79.4009796 39.3242449,80.6760816 L47.4875102,88.8393469 C48.7626122,90.114449 50.829551,90.114449 52.1046531,88.8393469 M73.469551,76.7348571 C73.469551,65.9152653 64.6973061,57.1430204 53.8777143,57.1430204 C43.0581224,57.1430204 34.2858776,65.9152653 34.2858776,76.7348571 C34.2858776,87.554449 43.0581224,96.3266939 53.8777143,96.3266939 C64.6973061,96.3266939 73.469551,87.554449 73.469551,76.7348571 M27.7552653,76.7348571 C27.7552653,62.3087347 39.4499592,50.6124082 53.8777143,50.6124082 C68.3054694,50.6124082 80.0001633,62.3087347 80.0001633,76.7348571 C80.0001633,91.1626122 68.3054694,102.857306 53.8777143,102.857306 C39.4499592,102.857306 27.7552653,91.1626122 27.7552653,76.7348571 M31.0205714,24.4899592 C31.0205714,22.6858776 29.5577143,21.2246531 27.7552653,21.2246531 L19.592,21.2246531 C17.7879184,21.2246531 16.3266939,22.6858776 16.3266939,24.4899592 C16.3266939,26.2924082 17.7879184,27.7552653 19.592,27.7552653 L27.7552653,27.7552653 C29.5577143,27.7552653 31.0205714,26.2924082 31.0205714,24.4899592 M48.9797551,37.5511837 C48.9797551,35.747102 47.516898,34.2858776 45.714449,34.2858776 L19.592,34.2858776 C17.7879184,34.2858776 16.3266939,35.747102 16.3266939,37.5511837 C16.3266939,39.3536327 17.7879184,40.8164898 19.592,40.8164898 L45.714449,40.8164898 C47.516898,40.8164898 48.9797551,39.3536327 48.9797551,37.5511837 M38.0703673,48.156898 C37.4956735,47.6524082 36.7430204,47.347102 35.9185306,47.347102 L19.592,47.347102 C17.7879184,47.347102 16.3266939,48.8083265 16.3266939,50.6124082 C16.3266939,52.4148571 17.7879184,53.8777143 19.592,53.8777143 L30.5585306,53.8777143 C32.7642449,51.6279184 35.2932245,49.6948571 38.0703673,48.156898 M25.5936327,60.4083265 L19.592,60.4083265 C17.7879184,60.4083265 16.3266939,61.869551 16.3266939,63.6736327 C16.3266939,65.4760816 17.7879184,66.9389388 19.592,66.9389388 L22.7185306,66.9389388 C23.4401633,64.6417959 24.4099592,62.4540408 25.5936327,60.4083265 M62.0409796,45.1103673 L62.0409796,21.0532245 C62.0409796,19.2540408 61.0075102,16.7626122 59.7324082,15.4875102 L46.5552653,2.30873469 C45.2785306,1.03363265 42.7740408,0.000163265306 40.9911837,0.000163265306 L6.5275102,0.000163265306 C2.92261224,0.000163265306 0.000163265306,2.92261224 0.000163265306,6.52097959 L0.000163265306,78.3773061 C0.000163265306,81.9789388 2.90955102,84.8981224 6.52261224,84.8981224 L22.2532245,84.8981224 C21.7128163,82.7952653 21.3748571,80.6107755 21.2638367,78.3675102 L9.78302041,78.3675102 C7.98710204,78.3675102 6.53240816,76.9013878 6.53404082,75.0940408 L6.58955102,9.80261224 C6.59118367,7.99526531 8.06220408,6.52914286 9.87281633,6.5275102 L37.5348571,6.52261224 C39.3487347,6.52261224 40.8164898,7.98546939 40.8164898,9.78465306 L40.8164898,14.6891429 C40.8164898,18.2989388 43.7373061,21.2246531 47.3438367,21.2246531 L52.3185306,21.2246531 C54.1307755,21.2246531 55.596898,22.6940408 55.5952653,24.5013878 L55.5626122,44.1242449 C57.7879184,44.2385306 59.9560816,44.5732245 62.0409796,45.1103673" id="Fill-1" fill="#449D44" mask="url(#mask-2)"></path>
            </g>
        </g>
    </g>
</svg>